<svg width="24" height="24" viewBox="0 0 24 24" fill="none" xmlns="http://www.w3.org/2000/svg">
<path d="M12.1342 4L11.8658 4C7.53032 4 4 6.88 4 10.4168L4 13.5832C4 17.12 7.53032 20 11.8658 20H12.1342C16.4697 20 20 17.12 20 13.5832V10.4168C20 6.88 16.4697 4 12.1342 4Z" fill="#292D32"/>
<path d="M14.5954 15.4286H14.5475C13.7733 15.4286 13.1429 15.9429 13.1429 16.5744V17.1398C13.1429 17.7714 13.7733 18.2857 14.5475 18.2857H14.5954C15.3696 18.2857 16 17.7714 16 17.1398V16.5744C16 15.9429 15.3696 15.4286 14.5954 15.4286Z" fill="#C1C1C1"/>
<path d="M17.7334 13.1429H17.6951C17.0757 13.1429 16.5714 13.5543 16.5714 14.0596V14.5119C16.5714 15.0171 17.0757 15.4286 17.6951 15.4286H17.7334C18.3528 15.4286 18.8571 15.0171 18.8571 14.5119V14.0596C18.8571 13.5543 18.3528 13.1429 17.7334 13.1429Z" fill="#C1C1C1"/>
<path d="M8.30011 6.28571H8.27135C7.80684 6.28571 7.42859 6.59428 7.42859 6.97322V7.31247C7.42859 7.69142 7.80684 7.99999 8.27135 7.99999H8.30011C8.76463 7.99999 9.14287 7.69142 9.14287 7.31247V6.97322C9.14287 6.59428 8.76463 6.28571 8.30011 6.28571Z" fill="#C1C1C1"/>
<path d="M10.5858 15.4286H10.5571C10.0925 15.4286 9.71429 15.7371 9.71429 16.1161V16.4553C9.71429 16.8343 10.0925 17.1429 10.5571 17.1429H10.5858C11.0503 17.1429 11.4286 16.8343 11.4286 16.4553V16.1161C11.4286 15.7371 11.0503 15.4286 10.5858 15.4286Z" fill="#C1C1C1"/>
<path d="M10.2953 5.14286H10.2761C9.96646 5.14286 9.71429 5.34857 9.71429 5.60121V5.82737C9.71429 6.08 9.96646 6.28572 10.2761 6.28572H10.2953C10.605 6.28572 10.8572 6.08 10.8572 5.82737V5.60121C10.8572 5.34857 10.605 5.14286 10.2953 5.14286Z" fill="#C1C1C1"/>
</svg>
