<svg width="24" height="24" viewBox="0 0 24 24" fill="none" xmlns="http://www.w3.org/2000/svg">
<path d="M12.1174 5H11.8826C8.08903 5 5 7.52 5 10.6147L5 13.3853C5 16.48 8.08903 19 11.8826 19H12.1174C15.911 19 19 16.48 19 13.3853V10.6147C19 7.52 15.911 5 12.1174 5Z" fill="#292D32"/>
<path d="M14.271 15H14.229C13.5516 15 13 15.45 13 16.0026V16.4974C13 17.05 13.5516 17.5 14.229 17.5H14.271C14.9484 17.5 15.5 17.05 15.5 16.4974V16.0026C15.5 15.45 14.9484 15 14.271 15Z" fill="#C1C1C1"/>
<path d="M17.0168 13H16.9832C16.4413 13 16 13.36 16 13.8021V14.1979C16 14.64 16.4413 15 16.9832 15H17.0168C17.5587 15 18 14.64 18 14.1979V13.8021C18 13.36 17.5587 13 17.0168 13Z" fill="#C1C1C1"/>
<path d="M8.76258 7H8.73742C8.33097 7 8 7.27 8 7.60158V7.89842C8 8.23 8.33097 8.5 8.73742 8.5H8.76258C9.16903 8.5 9.5 8.23 9.5 7.89842V7.60158C9.5 7.27 9.16903 7 8.76258 7Z" fill="#C1C1C1"/>
<path d="M10.7626 15H10.7374C10.331 15 10 15.27 10 15.6016V15.8984C10 16.23 10.331 16.5 10.7374 16.5H10.7626C11.169 16.5 11.5 16.23 11.5 15.8984V15.6016C11.5 15.27 11.169 15 10.7626 15Z" fill="#C1C1C1"/>
<path d="M10.5084 6H10.4916C10.2206 6 10 6.18 10 6.40105V6.59895C10 6.82 10.2206 7 10.4916 7H10.5084C10.7794 7 11 6.82 11 6.59895V6.40105C11 6.18 10.7794 6 10.5084 6Z" fill="#C1C1C1"/>
</svg>
