<svg width="24" height="24" viewBox="0 0 24 24" fill="none" xmlns="http://www.w3.org/2000/svg">
<path opacity="0.4" d="M16.19 2H7.82001C4.18001 2 2.01001 4.17 2.01001 7.81V16.18C2.01001 19.82 4.18001 21.99 7.82001 21.99H16.19C19.83 21.99 22 19.82 22 16.18V7.81C22 4.17 19.83 2 16.19 2Z" fill="#292D32"/>
<path d="M6 14.89C5.59 14.89 5.25 14.55 5.25 14.14V9.85001C5.25 9.44001 5.59 9.10001 6 9.10001C6.41 9.10001 6.75 9.44001 6.75 9.85001V14.14C6.75 14.56 6.41 14.89 6 14.89Z" fill="#292D32"/>
<path d="M9 16.32C8.59 16.32 8.25 15.98 8.25 15.57V8.42999C8.25 8.01999 8.59 7.67999 9 7.67999C9.41 7.67999 9.75 8.01999 9.75 8.42999V15.57C9.75 15.99 9.41 16.32 9 16.32Z" fill="#292D32"/>
<path d="M12 17.75C11.59 17.75 11.25 17.41 11.25 17V7C11.25 6.59 11.59 6.25 12 6.25C12.41 6.25 12.75 6.59 12.75 7V17C12.75 17.41 12.41 17.75 12 17.75Z" fill="#292D32"/>
<path d="M15 16.32C14.59 16.32 14.25 15.98 14.25 15.57V8.42999C14.25 8.01999 14.59 7.67999 15 7.67999C15.41 7.67999 15.75 8.01999 15.75 8.42999V15.57C15.75 15.99 15.41 16.32 15 16.32Z" fill="#292D32"/>
<path d="M18 14.89C17.59 14.89 17.25 14.55 17.25 14.14V9.85001C17.25 9.44001 17.59 9.10001 18 9.10001C18.41 9.10001 18.75 9.44001 18.75 9.85001V14.14C18.75 14.56 18.41 14.89 18 14.89Z" fill="#292D32"/>
</svg>
