<svg width="24" height="24" viewBox="0 0 24 24" fill="none" xmlns="http://www.w3.org/2000/svg">
<path d="M17 22H7C6.59 22 6.25 21.66 6.25 21.25C6.25 20.84 6.59 20.5 7 20.5H17C17.41 20.5 17.75 20.84 17.75 21.25C17.75 21.66 17.41 22 17 22Z" fill="url(#paint0_linear_2_439)"/>
<path d="M20.35 5.52L16.35 8.38C15.82 8.76 15.06 8.53 14.83 7.92L12.94 2.88C12.62 2.01 11.39 2.01 11.07 2.88L9.16998 7.91C8.93998 8.53 8.18997 8.76 7.65998 8.37L3.65998 5.51C2.85998 4.95 1.79998 5.74 2.12998 6.67L6.28998 18.32C6.42998 18.72 6.80998 18.98 7.22998 18.98H16.76C17.18 18.98 17.56 18.71 17.7 18.32L21.86 6.67C22.2 5.74 21.14 4.95 20.35 5.52ZM14.5 14.75H9.49998C9.08998 14.75 8.74998 14.41 8.74998 14C8.74998 13.59 9.08998 13.25 9.49998 13.25H14.5C14.91 13.25 15.25 13.59 15.25 14C15.25 14.41 14.91 14.75 14.5 14.75Z" fill="url(#paint1_linear_2_439)"/>
<defs>
<linearGradient id="paint0_linear_2_439" x1="12" y1="20.5" x2="12" y2="22" gradientUnits="userSpaceOnUse">
<stop stop-color="#FEB220"/>
<stop offset="1" stop-color="#FDCB69"/>
</linearGradient>
<linearGradient id="paint1_linear_2_439" x1="11.9967" y1="2.2275" x2="11.9967" y2="18.98" gradientUnits="userSpaceOnUse">
<stop stop-color="#FEB220"/>
<stop offset="1" stop-color="#FDCB69"/>
</linearGradient>
</defs>
</svg>
