<svg width="24" height="24" viewBox="0 0 24 24" fill="none" xmlns="http://www.w3.org/2000/svg">
<path opacity="0.4" d="M15.75 7.41V16.59C15.75 18.31 15.13 19.6 14.02 20.22C13.57 20.47 13.07 20.59 12.55 20.59C11.75 20.59 10.89 20.32 10.01 19.77L7.09 17.94C6.89 17.82 6.66 17.75 6.43 17.75H5.5V6.25H6.43C6.66 6.25 6.89 6.18 7.09 6.06L10.01 4.23C11.47 3.32 12.9 3.16 14.02 3.78C15.13 4.4 15.75 5.69 15.75 7.41Z" fill="#292D32"/>
<path d="M5.5 6.25V17.75H5C2.58 17.75 1.25 16.42 1.25 14V10C1.25 7.58 2.58 6.25 5 6.25H5.5Z" fill="#292D32"/>
<path d="M18.1421 19.1421L4 5" stroke="#292D32" stroke-width="1.5" stroke-linecap="round" stroke-linejoin="round"/>
</svg>
